<svg width="53" height="53" viewBox="0 0 53 53" fill="none" xmlns="http://www.w3.org/2000/svg">
<path d="M13.2023 23.0944H6.75488V16.647H46.2452V23.0944H39.7978" fill="#F45BC1" fill-opacity="0.69"/>
<path d="M43.8274 23.0947V48.8843H9.17261V23.0947" fill="#F45BC1" fill-opacity="0.69"/>
<path d="M23.6792 23.0947H29.3207V48.8843H23.6792V23.0947Z" fill="#ED491F"/>
<path d="M21.2615 16.647H31.7385V23.0944H21.2615V16.647Z" fill="#ED491F"/>
<path d="M32.5444 4.55811C30.9414 4.55811 29.4039 5.19493 28.2704 6.32848C27.1368 7.46203 26.5 8.99946 26.5 10.6025V12.6174C26.5 11.8204 26.7363 11.0413 27.1791 10.3786C27.6219 9.71595 28.2512 9.19946 28.9876 8.89447C29.7239 8.58947 30.5341 8.50967 31.3158 8.66516C32.0974 8.82064 32.8154 9.20443 33.379 9.76798C33.9426 10.3315 34.3263 11.0495 34.4818 11.8312C34.6373 12.6129 34.5575 13.4231 34.2525 14.1594C33.9475 14.8957 33.431 15.5251 32.7684 15.9679C32.1057 16.4106 31.3266 16.647 30.5296 16.647H32.5444C34.1475 16.647 35.6849 16.0102 36.8185 14.8766C37.9521 13.7431 38.5889 12.2056 38.5889 10.6025C38.5889 8.99946 37.9521 7.46203 36.8185 6.32848C35.6849 5.19493 34.1475 4.55811 32.5444 4.55811Z" fill="#ED491F"/>
<path d="M20.4556 4.55811C18.8525 4.55811 17.3151 5.19493 16.1815 6.32848C15.048 7.46203 14.4111 8.99946 14.4111 10.6025C14.4111 12.2056 15.048 13.7431 16.1815 14.8766C17.3151 16.0102 18.8525 16.647 20.4556 16.647H22.4704C21.6734 16.647 20.8943 16.4106 20.2316 15.9679C19.569 15.5251 19.0525 14.8957 18.7475 14.1594C18.4425 13.4231 18.3627 12.6129 18.5182 11.8312C18.6737 11.0495 19.0575 10.3315 19.621 9.76798C20.1846 9.20443 20.9026 8.82064 21.6842 8.66516C22.4659 8.50967 23.2761 8.58947 24.0125 8.89447C24.7488 9.19946 25.3781 9.71595 25.8209 10.3786C26.2637 11.0413 26.5 11.8204 26.5 12.6174V10.6025C26.5 8.99946 25.8632 7.46203 24.7296 6.32848C23.5961 5.19493 22.0587 4.55811 20.4556 4.55811Z" fill="#ED491F"/>
<path d="M34.1563 23.0947H18.8438" stroke="black" stroke-miterlimit="10"/>
<path d="M28.1118 16.647H29.3207C30.6032 16.647 31.8331 17.1564 32.74 18.0633C33.6468 18.9701 34.1563 20.2001 34.1563 21.4825V30.3477L36.977 28.3329L39.7977 30.3477V21.4825C39.7977 20.2001 39.2883 18.9701 38.3814 18.0633C37.4746 17.1564 36.2446 16.647 34.9622 16.647H33.7533" fill="#ED491F"/>
<path d="M24.8883 16.647H23.6794C22.3969 16.647 21.167 17.1564 20.2602 18.0633C19.3533 18.9701 18.8439 20.2001 18.8439 21.4825V26.3181L16.0231 24.3033L13.2024 26.3181V21.4825C13.2024 20.2001 13.7119 18.9701 14.6187 18.0633C15.5255 17.1564 16.7555 16.647 18.0379 16.647H19.2468" fill="#ED491F"/>
<path d="M26.5 16.647H20.4556C18.8525 16.647 17.3151 16.0102 16.1815 14.8766C15.048 13.7431 14.4111 12.2056 14.4111 10.6025C14.4111 8.99946 15.048 7.46203 16.1815 6.32848C17.3151 5.19493 18.8525 4.55811 20.4556 4.55811C22.0587 4.55811 23.5961 5.19493 24.7296 6.32848C25.8632 7.46203 26.5 8.99946 26.5 10.6025V16.647Z" stroke="black" stroke-miterlimit="10"/>
<path d="M26.5002 16.6471H22.4705C21.4018 16.6471 20.3769 16.2226 19.6212 15.4669C18.8655 14.7112 18.4409 13.6862 18.4409 12.6175C18.4409 11.5488 18.8655 10.5238 19.6212 9.76814C20.3769 9.01244 21.4018 8.58789 22.4705 8.58789C23.5393 8.58789 24.5642 9.01244 25.3199 9.76814C26.0756 10.5238 26.5002 11.5488 26.5002 12.6175V16.6471Z" stroke="black" stroke-miterlimit="10"/>
<path d="M26.5 16.6471H30.5296C31.5983 16.6471 32.6233 16.2226 33.379 15.4669C34.1347 14.7112 34.5593 13.6862 34.5593 12.6175C34.5593 11.5488 34.1347 10.5238 33.379 9.76814C32.6233 9.01244 31.5983 8.58789 30.5296 8.58789C29.4609 8.58789 28.436 9.01244 27.6802 9.76814C26.9245 10.5238 26.5 11.5488 26.5 12.6175V16.6471Z" stroke="black" stroke-miterlimit="10"/>
<path d="M24.8883 16.647H23.6794C22.3969 16.647 21.167 17.1564 20.2602 18.0633C19.3533 18.9701 18.8439 20.2001 18.8439 21.4825V26.3181L16.0231 24.3033L13.2024 26.3181V21.4825C13.2024 20.2001 13.7119 18.9701 14.6187 18.0633C15.5255 17.1564 16.7555 16.647 18.0379 16.647H19.2468" stroke="black" stroke-miterlimit="10"/>
<path d="M28.1118 16.647H29.3207C30.6032 16.647 31.8331 17.1564 32.74 18.0633C33.6468 18.9701 34.1563 20.2001 34.1563 21.4825V30.3477L36.977 28.3329L39.7977 30.3477V21.4825C39.7977 20.2001 39.2883 18.9701 38.3814 18.0633C37.4746 17.1564 36.2446 16.647 34.9622 16.647H33.7533" stroke="black" stroke-miterlimit="10"/>
<path d="M32.5444 16.647H26.5V10.6025C26.5 8.99946 27.1368 7.46203 28.2704 6.32848C29.4039 5.19493 30.9414 4.55811 32.5444 4.55811C34.1475 4.55811 35.6849 5.19493 36.8185 6.32848C37.9521 7.46203 38.5889 8.99946 38.5889 10.6025C38.5889 12.2056 37.9521 13.7431 36.8185 14.8766C35.6849 16.0102 34.1475 16.647 32.5444 16.647Z" stroke="black" stroke-miterlimit="10"/>
<path d="M43.8274 23.0947V48.8843H9.17261V23.0947" stroke="black" stroke-miterlimit="10"/>
<path d="M34.1563 23.0947H18.8438" stroke="black" stroke-miterlimit="10"/>
<path d="M13.2023 23.0944H6.75488V16.647H46.2452V23.0944H39.7978" stroke="black" stroke-miterlimit="10"/>
<path d="M23.6792 23.0947H29.3207V48.8843H23.6792V23.0947Z" stroke="black" stroke-miterlimit="10"/>
<path d="M21.2615 16.647H31.7385V23.0944H21.2615V16.647Z" stroke="black" stroke-miterlimit="10"/>
<path d="M11.9934 46.4663H11.1875" stroke="black" stroke-miterlimit="10"/>
<path d="M13.6052 46.4663H12.7993" stroke="black" stroke-miterlimit="10"/>
<path d="M15.2171 46.4663H14.4111" stroke="black" stroke-miterlimit="10"/>
</svg>
